<?xml version="1.0" encoding="utf-8"?>
<!-- Generator: Adobe Illustrator 24.0.1, SVG Export Plug-In . SVG Version: 6.00 Build 0)  -->
<svg version="1.1" baseProfile="tiny" id="Layer_1" xmlns="http://www.w3.org/2000/svg" xmlns:xlink="http://www.w3.org/1999/xlink"
	 x="0px" y="0px" viewBox="0 0 240.1 240.1" xml:space="preserve">
<g>
	<path fill="#FFFFFF" d="M188,0H52c-3.3,0-6,2.7-6,6v184.2c0,3.3,2.7,6,6,6h34.3v31.9h-5.8c-3.3,0-6,2.7-6,6s2.7,6,6,6h11.8h55.3
		h11.8c3.3,0,6-2.7,6-6s-2.7-6-6-6h-5.8v-31.9H188c3.3,0,6-2.7,6-6V6C194,2.7,191.4,0,188,0z M58,32h124v132.1H58
		C58,164.1,58,32,58,32z M182,12v8H58v-8H182z M141.7,228.1H98.4v-31.9h43.3V228.1z M147.7,184.2H92.4H58v-8h124v8H147.7z"/>
</g>
</svg>
